<?xml version="1.0" standalone="no"?>
<!DOCTYPE svg PUBLIC "-//W3C//DTD SVG 20010904//EN"
 "http://www.w3.org/TR/2001/REC-SVG-20010904/DTD/svg10.dtd">
<svg version="1.0" xmlns="http://www.w3.org/2000/svg"
 width="1154.000000pt" height="1154.000000pt" viewBox="0 0 1154.000000 1154.000000"
 preserveAspectRatio="xMidYMid meet">
<metadata>
Created by potrace 1.11, written by Peter Selinger 2001-2013
</metadata>
<g transform="translate(0.000000,1154.000000) scale(0.100000,-0.100000)"
fill="#000000" stroke="none">
<path d="M5535 11010 c-84 -7 -158 -25 -203 -49 -11 -6 -48 -13 -81 -15 -48
-4 -75 -13 -120 -40 -39 -24 -71 -36 -95 -36 -23 0 -39 -5 -42 -15 -8 -21 -38
-27 -67 -14 -21 10 -31 8 -59 -9 -75 -45 -157 -86 -233 -114 -73 -27 -90 -30
-190 -29 -96 2 -271 -11 -344 -25 -13 -3 -73 -55 -136 -117 l-111 -112 -43
-111 c-24 -62 -60 -134 -81 -163 -25 -34 -36 -57 -33 -71 4 -16 0 -20 -19 -20
-14 0 -36 -8 -49 -19 -35 -27 -60 -33 -183 -40 -106 -7 -114 -9 -169 -44 -67
-43 -114 -92 -123 -127 -4 -14 -13 -34 -20 -45 -8 -11 -14 -26 -14 -35 -1 -8
-9 -33 -20 -55 -11 -22 -19 -44 -20 -49 0 -5 -9 -27 -19 -50 -11 -23 -22 -53
-25 -68 -4 -15 -18 -39 -33 -52 -23 -22 -33 -24 -71 -19 -25 3 -53 14 -64 25
-30 30 -101 24 -160 -14 -40 -26 -56 -45 -75 -88 -13 -30 -28 -57 -32 -60 -11
-7 -51 -86 -51 -102 0 -9 3 -9 12 0 17 17 93 15 107 -2 9 -11 5 -24 -20 -62
-18 -27 -47 -65 -64 -84 -40 -44 -55 -87 -55 -162 0 -32 -7 -75 -15 -95 -8
-19 -15 -54 -15 -77 0 -66 -19 -168 -40 -212 -32 -69 -77 -224 -95 -324 -39
-221 -28 -197 -119 -285 -44 -44 -109 -106 -144 -138 -57 -53 -112 -124 -112
-146 0 -5 9 -11 21 -14 l20 -5 -21 -44 c-12 -24 -32 -54 -45 -68 -13 -14 -26
-34 -29 -45 -3 -12 -19 -29 -36 -38 -16 -10 -30 -22 -30 -27 0 -4 -13 -21 -30
-37 -16 -15 -30 -33 -30 -40 0 -35 133 -22 217 20 26 14 74 28 106 32 76 10
75 -5 -5 -91 -70 -74 -128 -156 -158 -223 -23 -50 -60 -196 -60 -234 0 -34 17
-43 25 -15 4 13 18 38 32 56 20 26 28 31 39 21 19 -15 18 -102 -1 -138 -8 -16
-17 -49 -20 -75 -4 -26 -13 -59 -20 -73 -11 -21 -11 -31 0 -57 7 -17 24 -58
37 -90 13 -33 28 -61 34 -63 11 -4 19 39 31 152 6 65 22 88 91 132 31 20 65
47 76 60 34 44 41 32 66 -122 22 -134 49 -270 65 -335 14 -52 16 -87 10 -180
-17 -263 -9 -430 27 -580 6 -25 16 -81 24 -125 7 -44 23 -111 34 -150 12 -38
25 -104 29 -145 10 -94 66 -215 146 -314 30 -38 69 -94 87 -125 17 -31 46 -77
64 -102 18 -25 38 -56 43 -70 13 -32 44 -72 114 -143 32 -33 64 -74 71 -91 8
-17 26 -41 41 -53 17 -14 31 -37 35 -59 35 -171 52 -216 105 -277 29 -33 41
-39 82 -42 88 -7 103 -24 103 -123 0 -29 6 -79 14 -110 8 -31 17 -111 21 -179
3 -68 13 -144 21 -170 7 -26 14 -77 14 -115 0 -42 8 -89 20 -124 11 -32 20
-71 20 -88 0 -17 9 -56 20 -88 11 -31 20 -67 20 -80 0 -13 7 -32 15 -43 8 -10
15 -29 15 -41 0 -12 9 -42 19 -65 10 -24 29 -68 41 -98 28 -67 132 -280 165
-335 13 -22 29 -51 35 -65 6 -13 15 -27 19 -30 8 -6 93 -135 108 -165 6 -11
13 -90 16 -175 4 -85 11 -171 17 -190 6 -19 13 -111 17 -205 l6 -170 -52 -62
c-66 -79 -195 -189 -341 -290 -61 -42 -70 -48 -126 -81 -116 -67 -166 -95
-234 -131 -41 -21 -88 -46 -105 -55 -16 -9 -35 -16 -41 -16 -6 0 -17 -7 -24
-15 -7 -8 -20 -15 -30 -15 -9 0 -27 -9 -40 -20 -13 -11 -31 -20 -40 -20 -9 0
-27 -9 -40 -20 -13 -11 -30 -20 -39 -20 -9 0 -29 -9 -46 -20 l-30 -20 728 0
728 0 -7 73 c-3 39 -12 78 -18 86 -14 18 -12 271 3 299 8 15 8 21 0 24 -15 5
7 121 32 161 12 21 19 50 19 87 0 38 7 66 21 89 l21 35 39 -45 c21 -24 39 -50
39 -56 0 -7 5 -13 10 -13 22 0 120 -126 120 -154 0 -8 32 -52 70 -100 39 -47
70 -88 70 -91 0 -3 22 -36 48 -73 26 -37 54 -79 61 -93 7 -15 28 -44 47 -65
18 -22 34 -43 34 -47 0 -5 24 -33 54 -63 l55 -54 65 0 66 0 0 39 c0 33 4 40
23 43 28 4 36 51 12 75 -14 14 -18 14 -26 2 -7 -11 -9 -10 -9 5 0 11 8 28 17
38 13 14 14 21 5 30 -7 7 -12 15 -12 18 0 10 43 5 65 -7 31 -17 164 -60 230
-74 84 -19 908 -20 926 -2 7 7 23 13 34 13 33 0 183 50 199 66 8 8 22 14 32
14 10 0 26 7 36 17 17 15 18 15 18 0 0 -10 -5 -17 -11 -17 -6 0 -8 -7 -5 -16
4 -9 -1 -28 -9 -41 -15 -22 -15 -27 -1 -48 22 -33 20 -47 -9 -99 -14 -25 -25
-47 -25 -50 0 -3 49 -6 109 -6 88 0 110 3 115 15 3 8 16 15 28 15 16 0 27 9
34 28 16 41 101 150 161 207 29 28 53 57 53 65 0 8 16 32 35 53 19 20 39 56
46 80 15 59 66 144 100 169 16 12 29 27 29 34 0 6 17 27 38 46 20 18 45 46 55
62 10 15 31 33 46 39 15 7 26 18 24 25 -3 8 6 12 26 12 l31 0 -6 -57 c-13
-148 1 -218 47 -230 15 -4 19 -15 20 -52 1 -25 1 -49 0 -53 0 -3 -3 -42 -6
-85 -3 -43 -11 -120 -16 -172 -6 -52 -12 -118 -14 -148 l-3 -53 732 0 731 0
-210 106 c-115 58 -246 125 -290 149 -44 24 -92 49 -107 56 -16 6 -28 15 -28
19 0 4 -12 13 -27 19 -38 15 -87 46 -158 100 -33 25 -74 56 -92 68 -77 52
-259 232 -273 269 -15 38 -12 274 5 399 8 61 18 170 21 244 7 133 7 133 43
181 61 83 212 345 241 420 5 14 16 38 25 53 8 16 15 36 15 45 0 9 9 32 20 50
11 18 20 40 20 50 1 9 9 35 20 57 11 22 19 50 20 63 0 13 6 35 14 50 7 15 17
49 20 75 4 26 14 63 22 82 8 19 14 58 14 87 1 29 8 71 16 93 8 22 19 96 24
165 5 69 14 141 19 160 6 19 13 84 17 145 10 204 27 239 115 238 43 -1 56 4
86 30 39 35 80 116 93 186 18 97 63 239 119 378 12 28 21 62 21 75 0 13 7 34
16 47 12 17 15 35 10 70 -9 69 1 104 45 150 27 30 44 62 60 114 32 110 39 121
82 128 47 8 66 25 101 94 26 53 28 61 22 148 -3 51 -9 119 -12 152 -10 92 14
272 82 633 7 36 23 26 49 -34 14 -31 35 -68 49 -84 13 -16 32 -56 42 -89 17
-60 36 -77 48 -45 5 12 14 15 38 10 l31 -6 -6 177 c-6 192 -12 215 -73 323
-54 94 -83 214 -90 362 -2 43 -8 87 -14 98 -6 12 -24 90 -40 173 l-28 152 -61
55 c-33 30 -65 68 -71 83 -24 65 -49 433 -32 463 6 12 5 28 -3 48 -11 26 -11
38 1 71 7 22 14 41 14 42 0 2 16 9 35 17 19 8 35 19 36 23 3 35 8 76 14 124 8
59 -4 99 -30 99 -24 0 -55 50 -55 91 0 22 4 39 8 39 14 0 32 -23 32 -42 0 -22
13 -23 30 -3 9 11 11 33 5 78 -4 34 -9 100 -10 147 -2 47 -13 136 -24 199 -17
95 -25 120 -50 152 l-30 37 2 139 c2 134 1 139 -23 167 -48 57 -60 66 -83 66
-13 0 -32 9 -42 20 -10 11 -28 20 -39 20 -39 0 -122 58 -240 167 -127 117
-146 130 -217 148 -66 18 -81 30 -155 133 -61 85 -96 122 -158 165 -41 28 -31
69 19 79 39 7 29 38 -31 99 -60 60 -116 87 -219 104 -22 4 -54 15 -71 26 -19
11 -50 19 -76 19 -25 0 -61 6 -79 14 -19 7 -56 17 -83 21 -92 13 -144 45 -251
153 -55 56 -103 102 -107 102 -10 0 -37 23 -94 80 -44 43 -49 45 -117 51 -40
3 -173 4 -297 3 -124 -2 -230 0 -236 4 -18 12 -62 98 -69 135 -11 56 -76 110
-164 136 -67 20 -93 22 -300 20 -271 -2 -290 3 -237 55 14 15 45 29 80 36 31
6 56 13 56 15 0 17 -146 57 -194 53 -11 -1 -61 -4 -111 -8z m480 -1654 c19 -8
35 -17 35 -20 0 -15 -69 -4 -90 14 l-23 20 22 0 c12 0 37 -7 56 -14z m-3350
-333 c-7 -17 -8 -17 -15 2 -9 24 -2 41 12 27 6 -6 7 -19 3 -29z m3615 -114 c0
-6 -4 -7 -10 -4 -5 3 -10 11 -10 16 0 6 5 7 10 4 6 -3 10 -11 10 -16z m2710
-84 c0 -8 -9 -15 -20 -15 -13 0 -18 5 -14 15 4 8 12 15 20 15 8 0 14 -7 14
-15z m-2035 -420 c66 -35 159 -87 205 -114 47 -27 122 -71 168 -97 45 -26 117
-77 159 -113 43 -36 84 -72 93 -79 8 -7 31 -25 50 -41 19 -16 32 -32 29 -36
-8 -7 -12 -7 -126 1 -86 6 -98 1 -64 -30 21 -19 148 -75 170 -76 25 0 101 -41
95 -51 -15 -25 -174 15 -236 61 -15 11 -30 20 -34 20 -4 0 -30 19 -58 43 -28
24 -73 58 -101 77 -141 95 -344 260 -430 352 -102 106 -115 123 -124 156 l-9
31 46 -20 c25 -11 100 -49 167 -84z m-2632 -238 c9 -13 46 -60 84 -104 37 -44
86 -101 108 -128 22 -27 50 -59 63 -70 12 -12 22 -27 22 -32 0 -5 14 -22 31
-39 45 -43 70 -81 79 -120 13 -55 4 -54 -141 25 -115 62 -290 219 -357 320
-33 49 -34 55 -21 76 8 12 25 38 37 58 29 45 71 51 95 14z m1285 -190 c6 -7
13 -33 16 -57 3 -25 3 -38 0 -30 -2 8 -18 23 -34 32 -28 16 -39 46 -23 61 10
11 30 8 41 -6z m-213 -26 c22 -13 32 -27 36 -57 4 -21 6 -40 5 -40 0 -1 -28 3
-62 10 -99 18 -127 47 -91 94 14 17 77 14 112 -7z m-612 -48 c64 -67 87 -92
141 -157 40 -50 110 -106 131 -106 24 0 23 26 -4 66 -15 22 -30 50 -33 62 -8
30 20 29 106 -3 75 -28 132 -31 282 -14 118 13 127 8 216 -111 71 -96 182
-210 204 -210 3 0 34 -24 69 -54 64 -52 125 -79 207 -92 49 -8 48 5 -4 36 -48
29 -69 43 -131 88 -25 17 -51 32 -57 32 -9 0 -30 40 -30 58 0 4 9 13 19 19 16
10 35 5 115 -30 57 -25 98 -49 102 -59 5 -16 50 -26 88 -19 4 1 32 -7 61 -18
29 -11 77 -23 107 -26 l53 -6 -28 25 c-15 14 -40 29 -55 32 -64 16 -231 127
-315 210 -49 48 -118 155 -115 178 2 17 9 21 38 19 19 -2 71 -4 115 -6 50 -2
92 -9 111 -20 30 -15 32 -15 48 2 9 10 16 22 16 28 0 6 11 14 24 17 46 11 250
-13 361 -44 61 -16 127 -30 148 -30 33 0 94 -26 207 -89 18 -10 92 -31 138
-38 35 -6 43 8 16 29 -9 7 -26 23 -38 35 -12 12 -34 25 -48 28 -14 4 -28 15
-31 24 -2 10 -22 27 -43 38 -46 24 -106 78 -97 87 13 13 64 5 105 -17 60 -32
128 -78 128 -87 0 -4 28 -26 62 -49 58 -39 118 -113 100 -125 -4 -2 -27 4 -51
15 -52 23 -61 24 -61 4 0 -11 127 -105 143 -105 3 0 19 -13 36 -29 16 -15 44
-31 61 -35 21 -4 56 -31 108 -84 78 -79 102 -92 193 -107 20 -3 43 -13 51 -23
20 -22 31 -69 19 -77 -12 -7 -13 -242 -1 -325 8 -54 7 -72 -8 -107 -9 -24 -23
-43 -29 -43 -7 0 -13 -7 -13 -15 0 -17 -9 -21 -125 -58 -141 -45 -173 -49
-327 -42 l-144 7 -60 -32 c-80 -43 -89 -48 -161 -100 -34 -25 -75 -54 -90 -65
-15 -11 -48 -31 -73 -44 -25 -13 -52 -30 -61 -37 -8 -8 -20 -14 -26 -14 -19 0
-157 -96 -210 -146 -28 -27 -66 -76 -84 -109 -18 -33 -54 -94 -79 -135 -25
-41 -54 -95 -65 -120 -25 -60 -52 -89 -103 -112 -38 -17 -65 -19 -233 -18
-169 0 -195 3 -229 20 -39 20 -70 54 -70 76 0 13 -58 104 -90 142 -11 13 -20
32 -20 42 0 10 -7 20 -14 23 -8 3 -18 21 -21 39 -4 20 -27 55 -58 90 -29 31
-59 64 -68 75 -31 35 -103 88 -203 149 -117 70 -187 116 -270 174 -101 72
-224 114 -281 98 -37 -11 -176 -1 -247 17 -79 20 -201 64 -209 76 -3 6 -10 9
-15 8 -16 -4 -64 24 -64 37 0 7 -5 14 -10 16 -6 2 -11 31 -12 65 -2 64 11 93
41 93 9 0 23 5 31 10 12 8 7 17 -30 55 -60 61 -49 72 58 56 118 -17 123 -12
100 101 -12 56 -11 58 18 100 43 60 47 77 28 106 -14 21 -15 30 -3 64 11 36
11 44 -8 81 -26 52 -40 85 -48 115 -9 30 23 30 73 -2 68 -43 192 -74 192 -48
0 16 -83 92 -100 92 -6 0 -10 12 -9 28 0 15 3 21 6 15 2 -7 14 -13 24 -13 11
0 32 -6 47 -14 47 -23 232 -67 295 -69 54 -2 69 -7 112 -40 28 -20 64 -44 80
-53 17 -9 32 -20 35 -23 43 -53 220 -154 220 -127 0 7 -80 95 -108 120 -78 69
-360 484 -345 509 9 14 21 6 76 -50z m1489 27 c29 -26 31 -30 13 -31 -36 -3
-102 8 -123 20 -13 8 -10 12 18 24 49 22 56 21 92 -13z m-511 -222 c8 -33 2
-34 -28 -9 -29 24 -29 43 -1 39 14 -2 24 -13 29 -30z m1781 -31 c39 -17 200
-169 188 -177 -7 -5 -7 -16 1 -36 18 -43 21 -72 9 -79 -14 -9 -41 25 -37 45 1
8 -12 24 -29 35 -32 20 -124 126 -124 142 0 5 -13 22 -30 38 -46 44 -36 58 22
32z m-5552 -217 c0 -9 -35 -50 -43 -50 -6 0 -1 35 7 48 9 14 36 16 36 2z m174
-594 c8 -32 -1 -52 -49 -113 -54 -67 -84 -90 -96 -72 -18 28 -8 62 29 104 20
23 45 56 54 73 21 39 53 43 62 8z m1998 -608 c30 -29 25 -54 -12 -62 -16 -3
-39 -15 -50 -26 -11 -11 -31 -20 -45 -20 -14 0 -25 -4 -25 -9 0 -5 47 -9 104
-8 83 0 107 -3 120 -16 18 -17 20 -16 -49 -32 -46 -11 -169 -13 -182 -3 -7 6
-18 6 -25 2 -18 -11 -138 -11 -138 0 0 4 -7 6 -15 2 -9 -3 -15 0 -15 8 0 8 -7
16 -15 20 -8 3 -15 12 -15 21 0 8 -4 15 -9 15 -5 0 -4 15 2 35 18 60 108 90
284 94 52 1 66 -3 85 -21z m3756 -5 c32 -4 42 -9 38 -20 -3 -8 -6 -23 -6 -34
0 -13 -5 -17 -17 -13 -15 5 -15 3 1 -10 19 -16 19 -16 -2 -16 -13 0 -25 -7
-29 -15 -8 -23 2 -28 21 -10 14 14 16 14 16 2 0 -9 -5 -17 -11 -19 -7 -2 -12
-17 -13 -33 -1 -23 -6 -31 -24 -33 -22 -3 -52 18 -52 37 0 6 -3 11 -7 11 -5 0
-8 13 -8 30 0 24 6 32 28 39 36 13 34 19 -3 13 -35 -5 -40 -11 -45 -54 -3 -17
-7 -33 -11 -37 -3 -3 -43 -6 -88 -6 -61 0 -80 3 -72 11 6 6 18 13 26 17 12 4
11 6 -2 6 -11 1 -18 9 -18 21 0 20 -10 24 -40 20 -12 -1 -12 1 -3 10 9 9 9 19
0 37 -10 22 -8 28 13 45 23 19 34 20 145 14 66 -4 139 -9 163 -13z m-3708 -83
c0 -5 -6 -10 -14 -10 -8 0 -18 5 -21 10 -3 6 3 10 14 10 12 0 21 -4 21 -10z
m485 -307 c39 -8 90 -17 115 -21 53 -9 70 -18 70 -37 0 -25 -57 -33 -160 -22
-159 16 -229 18 -247 9 -11 -6 -42 -13 -69 -17 -60 -7 -114 -25 -115 -40 0 -5
-2 -21 -4 -35 -8 -58 -6 -148 4 -185 6 -22 28 -65 50 -95 72 -100 67 -97 177
-104 191 -13 210 -13 328 4 111 16 162 15 209 -5 11 -5 24 -2 35 8 9 8 31 19
47 23 38 9 85 35 85 48 0 14 -41 56 -55 56 -7 0 -20 -9 -30 -20 -24 -26 -38
-25 -72 4 -24 20 -25 26 -14 40 7 9 22 16 32 16 37 0 17 47 -49 119 -28 29
-58 72 -68 95 -10 22 -23 44 -29 48 -19 14 10 28 43 22 60 -12 165 -136 227
-267 44 -92 50 -140 24 -196 -10 -24 -19 -49 -19 -55 0 -19 -52 -64 -87 -76
-21 -8 -35 -21 -42 -41 -5 -16 -15 -29 -21 -29 -6 0 -10 -18 -9 -42 1 -31 -9
-64 -35 -118 -20 -41 -36 -82 -36 -92 0 -10 -5 -18 -10 -18 -7 0 -8 -14 -4
-37 4 -21 7 -45 7 -53 0 -8 5 -18 10 -22 6 -3 11 -17 12 -29 1 -13 7 -25 12
-26 7 -3 7 -20 2 -49 -5 -26 -7 -50 -4 -54 5 -8 -26 -38 -65 -62 -37 -22 -170
-63 -275 -83 -205 -39 -589 -11 -750 56 -11 4 -37 15 -59 23 -130 53 -253 178
-293 299 -27 83 -28 100 -9 116 8 6 17 32 21 56 3 25 10 45 14 45 9 0 21 44
28 105 2 22 8 42 12 45 3 3 8 32 9 65 2 33 9 69 16 80 7 11 16 36 20 55 9 46
35 76 73 84 59 13 113 -33 113 -96 0 -25 79 -105 113 -113 18 -5 39 4 90 42
36 26 71 59 78 73 8 14 14 26 15 28 1 1 14 -2 29 -8 26 -10 27 -9 14 7 -7 10
-29 34 -48 53 -18 19 -42 54 -53 78 -19 42 -19 43 0 85 11 23 28 84 38 136 18
92 20 94 54 109 94 42 341 49 505 15z m2859 2 c67 -20 114 -58 97 -79 -16 -20
-7 -105 17 -159 12 -27 22 -57 22 -68 0 -32 -35 -91 -74 -127 -42 -38 -40 -55
7 -41 17 5 33 9 34 9 1 0 5 -19 8 -43 5 -32 14 -48 36 -62 16 -11 29 -25 29
-32 0 -43 108 -29 148 19 25 30 62 96 62 111 0 4 10 19 23 33 20 22 29 24 65
18 48 -8 92 -46 92 -80 0 -12 5 -26 10 -29 6 -3 10 -17 10 -31 0 -13 5 -24 11
-24 7 0 9 -11 6 -29 -3 -16 -3 -31 0 -34 3 -4 6 -26 8 -49 1 -39 22 -105 35
-118 3 -3 6 -24 7 -48 0 -24 6 -49 12 -55 6 -6 11 -38 11 -70 0 -80 -41 -165
-119 -246 -33 -33 -64 -61 -70 -61 -5 0 -22 -11 -38 -24 -66 -54 -286 -117
-483 -137 -231 -23 -518 15 -660 88 -14 7 -30 13 -35 13 -6 0 -30 18 -54 40
-38 35 -42 42 -30 56 7 9 12 29 11 45 -1 15 7 43 18 61 20 33 28 117 13 132
-4 4 -6 23 -4 42 1 21 -3 43 -12 52 -17 20 -39 85 -36 104 5 27 -29 84 -72
121 -24 21 -52 46 -63 55 -47 43 -79 186 -55 246 7 17 28 49 46 72 18 23 33
44 33 47 0 3 14 26 30 51 67 99 207 190 315 205 35 5 73 15 85 21 58 31 404
34 504 5z m-2884 -141 c79 -9 90 -22 90 -108 0 -60 -3 -73 -20 -84 -23 -14
-36 -14 -32 0 1 5 -9 33 -22 62 l-25 53 -60 6 c-34 4 -71 3 -84 -2 -37 -14
-85 -68 -89 -99 -4 -36 -40 -42 -62 -10 -18 26 -21 86 -5 121 11 24 60 55 109
68 25 7 100 5 200 -7z m261 -84 c56 -56 94 -129 85 -165 -7 -28 -33 -45 -113
-73 -62 -23 -127 -31 -140 -18 -4 3 10 38 31 76 36 68 42 98 46 223 0 22 47 0
91 -43z m-1673 -60 c-2 -47 -9 -75 -20 -86 -27 -27 -41 -7 -35 50 7 67 23 106
43 106 14 0 16 -10 12 -70z m5301 48 c25 -69 13 -173 -18 -143 -14 14 -36 129
-28 148 9 24 36 21 46 -5z m-2325 -104 c-31 -95 -34 -100 -45 -83 -11 18 -11
72 0 101 12 31 64 85 68 72 2 -6 -8 -47 -23 -90z m-663 33 c24 -33 29 -69 15
-95 l-12 -23 -13 27 c-16 35 -26 114 -15 114 5 0 16 -11 25 -23z m391 -57 c39
-11 92 -64 109 -109 22 -57 31 -132 30 -270 0 -80 -5 -159 -11 -177 -20 -60
-33 -288 -32 -543 l2 -254 30 -65 c16 -35 30 -70 30 -77 0 -7 9 -34 21 -60 12
-26 25 -71 29 -99 5 -28 16 -78 26 -111 9 -34 14 -72 11 -86 -6 -25 -79 -79
-124 -93 -11 -4 -24 -13 -27 -21 -8 -21 -100 -64 -151 -72 -36 -4 -55 -1 -100
22 -31 14 -68 36 -83 48 -15 12 -48 33 -74 47 -27 13 -48 28 -48 32 0 3 -24
20 -54 37 -30 17 -56 37 -59 44 -5 13 25 57 40 57 4 1 21 19 36 41 16 23 23
38 18 34 -6 -3 -11 -2 -11 4 0 5 3 11 8 13 4 2 14 30 23 63 16 57 59 178 78
220 17 35 33 226 32 370 -1 156 -17 384 -31 430 -15 51 -24 147 -21 220 2 70
23 202 37 240 12 31 55 85 78 97 49 27 129 34 188 18z m-1278 -45 c4 -10 -5
-19 -28 -29 -34 -14 -86 -11 -86 5 0 5 1 9 3 9 1 0 20 7 42 15 51 18 62 18 69
0z m3560 -1042 c-3 -38 -12 -88 -19 -113 -8 -25 -19 -66 -26 -93 -6 -26 -16
-50 -20 -53 -5 -3 -9 -13 -9 -23 0 -9 -9 -36 -20 -59 -11 -22 -20 -50 -20 -62
0 -11 -4 -20 -9 -20 -10 0 -37 -69 -33 -83 2 -5 -6 -11 -16 -14 -11 -2 -23
-21 -31 -49 -8 -25 -20 -48 -27 -51 -8 -3 -14 -15 -14 -27 0 -11 -7 -30 -15
-40 -8 -11 -15 -33 -15 -49 0 -16 -4 -26 -10 -22 -5 3 -10 0 -10 -8 0 -8 -18
-34 -40 -57 -22 -24 -38 -45 -35 -48 5 -5 -49 -106 -72 -133 -7 -8 -13 -23
-13 -32 0 -9 -20 -33 -45 -53 -24 -21 -49 -49 -54 -63 -5 -14 -25 -43 -45 -64
-20 -20 -36 -44 -36 -52 0 -7 -7 -18 -16 -23 -9 -5 -15 -13 -15 -18 3 -31 -16
-79 -41 -104 -16 -17 -33 -30 -38 -30 -5 0 -23 -30 -41 -67 -18 -38 -42 -78
-55 -91 -17 -17 -23 -39 -28 -95 -18 -197 -24 -235 -40 -277 -16 -42 -47 -171
-67 -285 -5 -27 -14 -62 -20 -77 -6 -15 -9 -34 -6 -42 3 -8 -3 -33 -14 -55
-10 -22 -19 -47 -19 -55 0 -8 -6 -19 -13 -23 -19 -11 -47 -72 -37 -78 10 -6
-9 -85 -21 -85 -16 0 -10 -29 9 -40 12 -8 13 -13 5 -16 -7 -3 -13 -19 -13 -34
0 -16 -4 -31 -9 -34 -5 -3 -12 -23 -16 -43 -10 -57 -35 -96 -103 -169 -20 -22
-37 -46 -38 -54 -2 -8 -8 -16 -13 -18 -6 -2 -11 -10 -11 -18 0 -8 -4 -14 -10
-14 -5 0 -10 -6 -10 -13 0 -17 -92 -59 -113 -51 -9 3 -17 1 -17 -4 0 -6 10
-13 23 -15 19 -4 18 -4 -5 -6 -16 0 -28 -4 -28 -8 0 -12 -59 -43 -82 -43 -10
0 -26 7 -34 15 -9 8 -24 15 -35 15 -15 0 -19 -7 -19 -39 0 -29 6 -44 28 -62
33 -29 61 -85 38 -76 -16 6 -26 -12 -26 -48 0 -12 -7 -28 -15 -35 -8 -7 -15
-21 -15 -31 0 -10 -25 -45 -55 -77 -30 -33 -55 -64 -55 -69 0 -15 -183 -123
-227 -135 -117 -31 -202 -37 -458 -32 -267 5 -312 11 -375 49 -19 12 -57 32
-84 46 -61 30 -226 189 -226 218 0 4 -9 16 -21 26 -36 34 -13 155 30 155 14 0
22 46 15 90 -6 39 -7 40 -49 40 -29 0 -45 -5 -49 -15 -6 -17 -52 -20 -88 -6
-26 10 -68 45 -68 56 0 5 -15 21 -32 37 -18 16 -34 33 -34 39 -1 5 -2 12 -3
15 0 4 -8 1 -17 -7 -10 -8 -18 -9 -22 -3 -4 6 -15 13 -24 17 -10 3 -18 12 -18
20 0 7 -11 23 -25 35 -14 12 -25 30 -25 39 0 10 -16 31 -35 47 -26 22 -33 34
-29 52 3 13 -1 33 -11 48 -10 14 -15 33 -11 41 3 9 -2 28 -12 42 -9 15 -15 35
-14 45 3 18 -20 94 -39 131 -7 13 -6 23 2 33 9 11 9 21 -1 43 -6 17 -9 34 -7
39 3 4 -3 21 -14 38 -11 16 -19 46 -19 69 0 26 -9 53 -25 77 -14 20 -25 47
-25 60 -1 24 -18 99 -43 183 -17 55 -29 117 -32 155 -7 79 -19 157 -27 167 -5
6 -11 31 -13 54 -3 23 -12 50 -21 60 -11 12 -14 27 -9 48 7 34 4 39 -71 115
-28 28 -54 58 -58 66 -3 8 -15 29 -26 45 -11 17 -23 37 -27 45 -4 8 -13 21
-20 28 -7 7 -13 21 -13 31 0 31 -44 69 -73 64 -23 -4 -27 -1 -36 33 -6 22 -14
56 -17 77 -4 20 -10 37 -14 37 -7 0 -17 23 -25 58 -2 8 -11 22 -21 33 -9 10
-14 19 -10 19 3 0 0 14 -9 30 -9 17 -20 30 -25 30 -5 0 -7 6 -4 14 3 7 -2 16
-10 19 -9 4 -16 13 -16 22 0 8 -4 15 -10 15 -5 0 -10 5 -10 10 0 6 -12 29 -27
53 -15 23 -27 45 -28 49 0 3 -3 9 -7 13 -4 4 -4 13 -1 21 3 8 -1 14 -8 14 -8
0 -32 37 -53 83 -22 45 -45 87 -52 92 -6 6 -17 34 -24 64 -7 30 -19 66 -26 80
-8 14 -14 36 -14 48 0 12 -9 38 -21 57 -11 19 -19 41 -18 48 2 7 -3 45 -11 83
-13 65 -14 94 -4 104 2 2 21 -7 41 -20 21 -14 47 -30 58 -37 31 -19 141 -72
149 -72 5 0 22 -6 39 -14 102 -47 384 -89 597 -89 176 0 357 28 505 78 55 18
115 36 133 40 31 6 32 5 32 -25 0 -17 9 -51 20 -76 55 -119 62 -167 44 -303
-26 -193 -21 -359 11 -408 8 -12 15 -27 15 -32 0 -16 61 -104 97 -138 22 -21
33 -41 33 -60 0 -22 2 -25 10 -13 15 23 12 -2 -7 -72 -15 -52 -26 -70 -71
-112 -69 -65 -106 -146 -67 -146 8 0 22 -14 30 -31 11 -21 21 -29 32 -24 9 3
19 1 23 -4 6 -11 42 -4 73 15 10 6 19 21 19 35 1 13 6 30 11 36 5 7 7 20 3 28
-6 18 13 65 27 65 5 0 22 12 38 28 16 15 39 29 51 32 20 5 108 119 108 140 0
14 42 35 63 31 10 -1 38 -16 62 -32 54 -37 116 -59 165 -59 42 0 146 33 169
54 9 8 27 17 41 21 30 7 68 -23 89 -70 29 -66 37 -78 72 -99 104 -61 117 -75
124 -127 4 -28 13 -53 20 -55 8 -3 21 -21 30 -40 12 -25 22 -34 40 -34 14 0
25 -4 25 -10 0 -5 13 -10 29 -10 20 0 35 -8 49 -27 26 -36 39 -24 54 51 10 46
10 59 0 65 -9 5 -12 24 -10 52 4 59 -25 89 -87 89 l-43 0 -5 43 c-16 122 -20
147 -28 147 -22 0 -5 47 39 103 26 34 52 67 58 72 17 15 63 162 70 226 4 32 1
95 -7 145 -15 99 -16 398 -2 417 5 6 15 31 23 55 21 67 30 70 118 39 207 -73
414 -102 674 -94 192 5 365 32 488 73 91 31 261 117 285 144 35 38 45 26 39
-47z m436 35 c0 -17 -18 -44 -24 -37 -8 7 5 49 15 49 5 0 9 -6 9 -12z m-5382
-431 c15 -47 24 -125 17 -138 -11 -17 -45 21 -45 52 0 15 -4 39 -10 53 -11 29
3 81 19 71 5 -3 14 -20 19 -38z m5248 -49 c4 -78 -4 -105 -30 -95 -19 8 -22
106 -5 156 17 49 31 24 35 -61z"/>
<path d="M6150 7280 c0 -12 28 -25 36 -17 3 3 -4 10 -15 17 -15 7 -21 7 -21 0z"/>
<path d="M7854 6139 c-3 -6 -1 -16 5 -22 8 -8 11 -5 11 11 0 24 -5 28 -16 11z"/>
<path d="M7169 5796 c-2 -2 -64 -7 -137 -10 -85 -3 -139 -10 -151 -18 -11 -8
-41 -43 -67 -78 -27 -36 -52 -68 -57 -71 -5 -4 -14 -15 -20 -26 -7 -11 -22
-35 -34 -53 l-22 -34 32 -28 32 -28 -24 -20 c-25 -22 -57 -19 -76 7 -22 30
-73 -23 -59 -61 7 -18 84 -49 122 -49 15 0 60 3 100 8 60 7 79 5 112 -10 35
-16 61 -17 232 -12 106 3 202 9 213 12 12 3 27 20 34 37 8 17 22 39 32 49 44
44 63 101 67 204 5 127 -5 143 -93 154 -33 5 -73 13 -88 20 -27 10 -139 16
-148 7z m166 -74 c65 -15 82 -23 92 -43 22 -43 -5 -169 -36 -169 -9 0 -38 69
-43 104 -4 27 -127 53 -169 36 -32 -14 -75 -65 -84 -102 -3 -13 -14 -29 -25
-35 -14 -10 -21 -8 -36 8 -20 22 -22 105 -4 139 19 35 82 65 150 71 36 3 67 6
70 7 3 1 41 -7 85 -16z m-401 -48 c3 -9 6 -37 6 -63 0 -59 25 -145 53 -183 18
-25 19 -30 7 -39 -20 -13 -82 -4 -150 23 -59 22 -90 49 -90 79 0 38 70 138
124 176 38 27 42 27 50 7z m211 -227 c13 -10 15 -16 6 -21 -12 -8 -41 10 -41
25 0 13 13 11 35 -4z m149 -12 c7 -20 -21 -32 -37 -16 -9 9 -8 14 3 21 21 13
27 12 34 -5z"/>
<path d="M6475 2658 c-11 -6 -35 -24 -53 -40 -18 -15 -38 -28 -44 -28 -6 0
-19 -7 -28 -15 -16 -14 -72 -21 -197 -24 -24 -1 -48 -8 -58 -17 -9 -9 -44 -23
-78 -30 -67 -14 -217 -19 -217 -6 0 4 -17 16 -37 27 -21 10 -46 25 -55 33 -12
10 -28 12 -52 8 -36 -7 -110 6 -161 28 -81 36 -112 43 -170 39 -70 -5 -177
-35 -243 -69 -26 -13 -56 -24 -68 -24 -11 0 -50 -9 -85 -19 -35 -11 -76 -22
-90 -25 -17 -4 -31 -17 -39 -36 -15 -36 -13 -38 36 -55 33 -11 44 -24 79 -88
24 -46 57 -91 83 -113 24 -20 50 -54 58 -74 11 -27 20 -37 32 -33 10 2 31 -3
47 -11 17 -9 49 -16 73 -16 57 0 132 34 132 60 0 30 61 87 111 104 39 13 107
14 440 11 380 -3 426 -6 480 -36 13 -7 30 -14 38 -15 18 -3 59 -51 72 -85 10
-27 44 -39 112 -39 15 0 36 -5 46 -12 26 -16 71 13 71 46 0 13 13 37 29 52 58
59 121 144 121 166 1 41 35 70 92 77 44 5 54 10 56 27 2 17 -9 28 -51 52 -30
17 -74 36 -98 42 -58 16 -137 49 -171 72 -14 10 -47 21 -73 25 -27 3 -59 16
-75 29 -31 27 -37 28 -65 12z"/>
<path d="M5902 1904 c-10 -5 -9 -9 5 -20 13 -9 51 -13 131 -14 110 0 144 11
80 25 -43 9 -199 16 -216 9z"/>
<path d="M5783 1893 c9 -2 25 -2 35 0 9 3 1 5 -18 5 -19 0 -27 -2 -17 -5z"/>
<path d="M4960 10879 c0 -5 5 -7 10 -4 6 3 10 8 10 11 0 2 -4 4 -10 4 -5 0
-10 -5 -10 -11z"/>
</g>
</svg>
